<svg width="417" height="38" viewBox="0 0 417 38" fill="none" xmlns="http://www.w3.org/2000/svg">
<path d="M0.756 4.232H8.856L11.196 20.036L13.608 8.444H21.996L24.444 20.036L26.784 4.232H34.884L29.268 29H20.88L17.82 15.68L14.76 29H6.372L0.756 4.232ZM37.4484 5.276L45.0444 4.16V14.672C45.5724 13.4 46.3644 12.428 47.4204 11.756C48.5004 11.06 49.7964 10.712 51.3084 10.712C53.6124 10.712 55.4124 11.54 56.7084 13.196C58.0284 14.828 58.6884 17.096 58.6884 20V29H51.1284V19.244C51.1284 18.212 50.9004 17.42 50.4444 16.868C50.0124 16.316 49.4004 16.04 48.6084 16.04C48.0324 16.04 47.4684 16.232 46.9164 16.616C46.3644 16.976 45.9084 17.504 45.5484 18.2C45.2124 18.896 45.0444 19.688 45.0444 20.576V29H37.4484V5.276ZM70.1193 29.288C68.5593 29.288 67.0953 28.88 65.7273 28.064C64.3833 27.224 63.3033 26.096 62.4873 24.68C61.6713 23.24 61.2633 21.644 61.2633 19.892C61.2633 18.164 61.6713 16.604 62.4873 15.212C63.3033 13.796 64.3953 12.692 65.7633 11.9C67.1313 11.108 68.5833 10.712 70.1193 10.712C71.3673 10.712 72.5193 11.06 73.5753 11.756C74.6553 12.452 75.4713 13.496 76.0233 14.888V10.712H83.5833V29H76.0233V25.652C74.8233 28.076 72.8553 29.288 70.1193 29.288ZM72.4593 23.6C73.4193 23.6 74.2353 23.264 74.9073 22.592C75.6033 21.896 75.9753 21.08 76.0233 20.144V19.856C75.9753 18.896 75.5913 18.08 74.8713 17.408C74.1753 16.736 73.3713 16.4 72.4593 16.4C71.4513 16.4 70.5873 16.76 69.8673 17.48C69.1713 18.176 68.8233 19.016 68.8233 20C68.8233 21.008 69.1833 21.86 69.9033 22.556C70.6233 23.252 71.4753 23.6 72.4593 23.6ZM95.1137 29.288C93.0017 29.288 91.3577 28.688 90.1817 27.488C89.0057 26.264 88.4177 24.584 88.4177 22.448V15.428H86.1137V10.964H88.9577L92.3057 4.16H95.9417V10.964H100.118V15.428H95.9417V21.548C95.9417 22.148 96.1337 22.616 96.5177 22.952C96.9017 23.288 97.4417 23.456 98.1377 23.456C98.7857 23.456 99.3737 23.312 99.9017 23.024L100.19 28.064C99.5897 28.424 98.8097 28.724 97.8497 28.964C96.9137 29.18 96.0017 29.288 95.1137 29.288ZM110.129 4.232H118.445V29H110.129V4.232ZM123.789 15.428H121.521V10.964H123.789V9.452C123.789 6.788 124.425 4.772 125.697 3.404C126.993 2.036 128.793 1.352 131.097 1.352C132.945 1.352 134.661 1.82 136.245 2.756L135.993 7.616C134.601 7.064 133.437 6.788 132.501 6.788C131.781 6.788 131.229 6.968 130.845 7.328C130.461 7.664 130.269 8.156 130.269 8.804C130.269 9.428 130.473 10.148 130.881 10.964H135.921V15.428H131.385V29H123.789V15.428ZM154.68 29.432C153.192 29.432 151.812 29.408 150.54 29.36C149.268 29.312 147.528 29.204 145.32 29.036V4.232H157.704C159.456 4.232 161.028 4.484 162.42 4.988C163.836 5.468 164.94 6.164 165.732 7.076C166.524 7.988 166.92 9.044 166.92 10.244C166.92 11.732 166.596 12.908 165.948 13.772C165.3 14.612 164.316 15.2 162.996 15.536C166.356 16.064 168.036 18.044 168.036 21.476C168.036 23.852 166.944 25.772 164.76 27.236C162.6 28.7 159.24 29.432 154.68 29.432ZM156.192 14.024C157.128 14.024 157.896 13.796 158.496 13.34C159.12 12.884 159.432 12.296 159.432 11.576C159.432 9.872 158.376 9.02 156.264 9.02H153.348V14.024H156.192ZM156.048 23.78C157.368 23.78 158.376 23.54 159.072 23.06C159.792 22.556 160.152 21.86 160.152 20.972C160.152 20.012 159.828 19.28 159.18 18.776C158.532 18.248 157.608 17.984 156.408 17.984H153.312V23.672C154.392 23.744 155.304 23.78 156.048 23.78ZM180.194 29.288C178.178 29.288 176.378 28.892 174.794 28.1C173.234 27.308 172.01 26.216 171.122 24.824C170.258 23.408 169.826 21.788 169.826 19.964C169.826 18.14 170.27 16.532 171.158 15.14C172.046 13.724 173.27 12.632 174.83 11.864C176.414 11.096 178.214 10.712 180.23 10.712C182.27 10.712 184.07 11.108 185.63 11.9C187.214 12.668 188.438 13.748 189.302 15.14C190.166 16.532 190.598 18.14 190.598 19.964C190.598 21.812 190.154 23.444 189.266 24.86C188.402 26.252 187.178 27.344 185.594 28.136C184.034 28.904 182.234 29.288 180.194 29.288ZM180.266 23.888C181.25 23.888 182.054 23.528 182.678 22.808C183.326 22.064 183.65 21.116 183.65 19.964C183.65 18.812 183.326 17.876 182.678 17.156C182.054 16.412 181.25 16.04 180.266 16.04C179.282 16.04 178.466 16.412 177.818 17.156C177.194 17.876 176.882 18.812 176.882 19.964C176.882 21.116 177.194 22.064 177.818 22.808C178.466 23.528 179.282 23.888 180.266 23.888ZM202.872 29.288C200.976 29.288 199.284 28.952 197.796 28.28C196.332 27.608 195.192 26.66 194.376 25.436C193.56 24.212 193.152 22.82 193.152 21.26V10.964H200.568V21.152C200.568 21.944 200.784 22.568 201.216 23.024C201.672 23.456 202.236 23.672 202.908 23.672C203.556 23.672 204.084 23.456 204.492 23.024C204.924 22.568 205.14 21.944 205.14 21.152V10.964H212.412V21.26C212.412 22.844 212.004 24.248 211.188 25.472C210.396 26.672 209.28 27.608 207.84 28.28C206.4 28.952 204.744 29.288 202.872 29.288ZM226.09 37.244C224.77 37.244 223.51 37.112 222.31 36.848L222.886 31.52C223.822 31.664 224.686 31.736 225.478 31.736C226.966 31.736 228.094 31.292 228.862 30.404C229.63 29.54 230.086 28.076 230.23 26.012C228.814 28.004 226.654 29 223.75 29C222.166 29 220.702 28.592 219.358 27.776C218.038 26.96 216.982 25.856 216.19 24.464C215.422 23.072 215.038 21.548 215.038 19.892C215.038 18.212 215.422 16.676 216.19 15.284C216.958 13.868 218.002 12.752 219.322 11.936C220.666 11.12 222.13 10.712 223.714 10.712C225.178 10.712 226.45 11.096 227.53 11.864C228.634 12.608 229.354 13.616 229.69 14.888V10.712H237.286V24.428C237.286 28.628 236.326 31.808 234.406 33.968C232.51 36.152 229.738 37.244 226.09 37.244ZM226.09 23.6C227.05 23.6 227.878 23.264 228.574 22.592C229.27 21.896 229.642 21.08 229.69 20.144V19.856C229.642 18.944 229.258 18.14 228.538 17.444C227.842 16.748 227.026 16.4 226.09 16.4C225.106 16.4 224.266 16.76 223.57 17.48C222.874 18.176 222.526 19.016 222.526 20C222.526 20.984 222.874 21.836 223.57 22.556C224.266 23.252 225.106 23.6 226.09 23.6ZM240.933 5.276L248.529 4.16V14.672C249.057 13.4 249.849 12.428 250.905 11.756C251.985 11.06 253.281 10.712 254.793 10.712C257.097 10.712 258.897 11.54 260.193 13.196C261.513 14.828 262.173 17.096 262.173 20V29H254.613V19.244C254.613 18.212 254.385 17.42 253.929 16.868C253.497 16.316 252.885 16.04 252.093 16.04C251.517 16.04 250.953 16.232 250.401 16.616C249.849 16.976 249.393 17.504 249.033 18.2C248.697 18.896 248.529 19.688 248.529 20.576V29H240.933V5.276ZM273.215 29.288C271.103 29.288 269.459 28.688 268.283 27.488C267.107 26.264 266.519 24.584 266.519 22.448V15.428H264.215V10.964H267.059L270.407 4.16H274.043V10.964H278.219V15.428H274.043V21.548C274.043 22.148 274.235 22.616 274.619 22.952C275.003 23.288 275.543 23.456 276.239 23.456C276.887 23.456 277.475 23.312 278.003 23.024L278.291 28.064C277.691 28.424 276.911 28.724 275.951 28.964C275.015 29.18 274.103 29.288 273.215 29.288ZM297.591 29.432C296.103 29.432 294.723 29.408 293.451 29.36C292.179 29.312 290.439 29.204 288.231 29.036V4.232H300.615C302.367 4.232 303.939 4.484 305.331 4.988C306.747 5.468 307.851 6.164 308.643 7.076C309.435 7.988 309.831 9.044 309.831 10.244C309.831 11.732 309.507 12.908 308.859 13.772C308.211 14.612 307.227 15.2 305.907 15.536C309.267 16.064 310.947 18.044 310.947 21.476C310.947 23.852 309.855 25.772 307.671 27.236C305.511 28.7 302.151 29.432 297.591 29.432ZM299.103 14.024C300.039 14.024 300.807 13.796 301.407 13.34C302.031 12.884 302.343 12.296 302.343 11.576C302.343 9.872 301.287 9.02 299.175 9.02H296.259V14.024H299.103ZM298.959 23.78C300.279 23.78 301.287 23.54 301.983 23.06C302.703 22.556 303.063 21.86 303.063 20.972C303.063 20.012 302.739 19.28 302.091 18.776C301.443 18.248 300.519 17.984 299.319 17.984H296.223V23.672C297.303 23.744 298.215 23.78 298.959 23.78ZM320.745 29.288C318.729 29.288 317.157 28.64 316.029 27.344C314.901 26.048 314.337 24.284 314.337 22.052V10.964H321.969V21.728C321.969 22.28 322.113 22.712 322.401 23.024C322.713 23.312 323.109 23.456 323.589 23.456C324.069 23.456 324.561 23.312 325.065 23.024L325.461 28.028C324.933 28.436 324.237 28.748 323.373 28.964C322.533 29.18 321.657 29.288 320.745 29.288ZM318.153 8.264C317.025 8.264 316.065 7.916 315.273 7.22C314.505 6.5 314.121 5.624 314.121 4.592C314.121 3.56 314.529 2.696 315.345 2C316.161 1.304 317.097 0.955998 318.153 0.955998C319.257 0.955998 320.205 1.316 320.997 2.036C321.813 2.756 322.221 3.608 322.221 4.592C322.221 5.648 321.813 6.524 320.997 7.22C320.181 7.916 319.233 8.264 318.153 8.264ZM335.055 29.288C332.943 29.288 331.299 28.688 330.123 27.488C328.947 26.264 328.359 24.584 328.359 22.448V15.428H326.055V10.964H328.899L332.247 4.16H335.883V10.964H340.059V15.428H335.883V21.548C335.883 22.148 336.075 22.616 336.459 22.952C336.843 23.288 337.383 23.456 338.079 23.456C338.727 23.456 339.315 23.312 339.843 23.024L340.131 28.064C339.531 28.424 338.751 28.724 337.791 28.964C336.855 29.18 335.943 29.288 335.055 29.288ZM351.356 29.288C349.436 29.288 347.732 28.904 346.244 28.136C344.78 27.344 343.628 26.24 342.788 24.824C341.972 23.408 341.564 21.8 341.564 20C341.564 18.272 341.996 16.7 342.86 15.284C343.724 13.868 344.9 12.752 346.388 11.936C347.876 11.12 349.532 10.712 351.356 10.712C353.684 10.712 355.52 11.192 356.864 12.152L356.18 16.94C354.812 16.532 353.684 16.328 352.796 16.328C351.644 16.328 350.732 16.664 350.06 17.336C349.388 17.984 349.052 18.872 349.052 20C349.052 21.128 349.388 22.028 350.06 22.7C350.732 23.372 351.62 23.708 352.724 23.708C353.684 23.708 354.812 23.504 356.108 23.096L356.792 28.136C355.976 28.544 355.148 28.832 354.308 29C353.468 29.192 352.484 29.288 351.356 29.288ZM368.702 29.288C366.686 29.288 364.886 28.892 363.302 28.1C361.742 27.308 360.518 26.216 359.63 24.824C358.766 23.408 358.334 21.788 358.334 19.964C358.334 18.14 358.778 16.532 359.666 15.14C360.554 13.724 361.778 12.632 363.338 11.864C364.922 11.096 366.722 10.712 368.738 10.712C370.778 10.712 372.578 11.108 374.138 11.9C375.722 12.668 376.946 13.748 377.81 15.14C378.674 16.532 379.106 18.14 379.106 19.964C379.106 21.812 378.662 23.444 377.774 24.86C376.91 26.252 375.686 27.344 374.102 28.136C372.542 28.904 370.742 29.288 368.702 29.288ZM368.774 23.888C369.758 23.888 370.562 23.528 371.186 22.808C371.834 22.064 372.158 21.116 372.158 19.964C372.158 18.812 371.834 17.876 371.186 17.156C370.562 16.412 369.758 16.04 368.774 16.04C367.79 16.04 366.974 16.412 366.326 17.156C365.702 17.876 365.39 18.812 365.39 19.964C365.39 21.116 365.702 22.064 366.326 22.808C366.974 23.528 367.79 23.888 368.774 23.888ZM388.14 29.288C386.124 29.288 384.552 28.64 383.424 27.344C382.296 26.048 381.732 24.284 381.732 22.052V10.964H389.364V21.728C389.364 22.28 389.508 22.712 389.796 23.024C390.108 23.312 390.504 23.456 390.984 23.456C391.464 23.456 391.956 23.312 392.46 23.024L392.856 28.028C392.328 28.436 391.632 28.748 390.768 28.964C389.928 29.18 389.052 29.288 388.14 29.288ZM385.548 8.264C384.42 8.264 383.46 7.916 382.668 7.22C381.9 6.5 381.516 5.624 381.516 4.592C381.516 3.56 381.924 2.696 382.74 2C383.556 1.304 384.492 0.955998 385.548 0.955998C386.652 0.955998 387.6 1.316 388.392 2.036C389.208 2.756 389.616 3.608 389.616 4.592C389.616 5.648 389.208 6.524 388.392 7.22C387.576 7.916 386.628 8.264 385.548 8.264ZM394.952 11.216H402.188V14.888C403.58 12.104 405.788 10.712 408.812 10.712C411.116 10.712 412.916 11.54 414.212 13.196C415.532 14.828 416.192 17.096 416.192 20V29H408.632V19.244C408.632 18.212 408.404 17.42 407.948 16.868C407.516 16.316 406.904 16.04 406.112 16.04C405.536 16.04 404.972 16.232 404.42 16.616C403.868 16.976 403.412 17.504 403.052 18.2C402.716 18.896 402.548 19.688 402.548 20.576V29H394.952V11.216Z" fill="url(#paint0_linear_4_2)"/>
<defs>
<linearGradient id="paint0_linear_4_2" x1="-6.11418e-08" y1="1.9643" x2="369.999" y2="5.11239" gradientUnits="userSpaceOnUse">
<stop stop-color="#D903DB"/>
<stop offset="1" stop-color="#FFE710" stop-opacity="0.89"/>
</linearGradient>
</defs>
</svg>
